<svg width="128" height="32" viewBox="0 0 128 32" fill="none" xmlns="http://www.w3.org/2000/svg">
<path d="M80.3201 8.70399H76.0961C76.0001 8.70399 75.9041 8.80001 75.9041 8.89601V11.344C75.9041 11.44 76.0001 11.536 76.0961 11.536H80.3201C80.4161 11.536 80.5121 11.44 80.5121 11.344V8.89601C80.5601 8.80001 80.4641 8.70399 80.3201 8.70399ZM80.2721 12.352H72.1121C72.0161 12.352 71.8721 12.448 71.8241 12.544L70.7681 16.528L70.7201 16.72L69.4721 12.448C69.4241 12.352 69.3281 12.256 69.1841 12.256H66.0161C65.9201 12.256 65.7761 12.352 65.7281 12.448L64.5281 16.432L64.4801 16.624L64.4321 16.528L63.9521 14.56L63.4241 12.592C63.3761 12.496 63.2801 12.4 63.1361 12.4H56.7521V8.94399C56.7521 8.84799 56.6081 8.704 56.4641 8.752L52.4321 10C52.2881 10.048 52.2401 10.096 52.2401 10.192V12.352H51.1841C51.0881 12.352 50.9921 12.448 50.9921 12.544V15.616C50.9921 15.712 51.0881 15.808 51.1841 15.808H52.2401V19.552C52.2401 22.192 53.6801 23.44 56.3201 23.44C57.4241 23.44 58.4801 23.2 59.2001 22.816V19.648C59.2001 19.504 59.0561 19.456 58.9601 19.456C58.5281 19.648 58.1921 19.696 57.8081 19.696C57.0881 19.696 56.7041 19.408 56.7041 18.592V15.856H59.0081C59.1041 15.856 59.2001 15.76 59.2001 15.664V13.072L62.2241 23.104C62.2721 23.2 62.3681 23.296 62.5121 23.296H65.8721C65.9681 23.296 66.1121 23.2 66.1601 23.104L67.6001 18.64L68.3201 20.944L68.9921 23.056C69.0401 23.152 69.1361 23.248 69.2801 23.248H72.6401C72.7361 23.248 72.8801 23.152 72.9281 23.056L76.0001 12.976V23.056C76.0001 23.152 76.0961 23.248 76.1921 23.248H80.2721C80.3681 23.248 80.4641 23.152 80.4641 23.056V12.592C80.4641 12.448 80.3681 12.352 80.2721 12.352ZM85.6481 8.70399H81.5681C81.4721 8.70399 81.3761 8.80001 81.3761 8.89601V23.056C81.3761 23.152 81.4721 23.248 81.5681 23.248H85.6481C85.7441 23.248 85.8401 23.152 85.8401 23.056V8.89601C85.8401 8.80001 85.7441 8.70399 85.6481 8.70399ZM91.0721 8.70399H86.8481C86.7521 8.70399 86.6561 8.80001 86.6561 8.89601V11.344C86.6561 11.44 86.7521 11.536 86.8481 11.536H91.0721C91.1681 11.536 91.2641 11.44 91.2641 11.344V8.89601C91.3121 8.80001 91.2161 8.70399 91.0721 8.70399ZM91.0241 12.352H86.9441C86.8481 12.352 86.7521 12.448 86.7521 12.544V23.056C86.7521 23.152 86.8481 23.248 86.9441 23.248H91.0241C91.1201 23.248 91.2161 23.152 91.2161 23.056V12.592C91.2161 12.448 91.1201 12.352 91.0241 12.352ZM97.7921 12.112C94.1921 12.112 91.6481 14.752 91.6481 17.824V17.872C91.6481 20.944 94.1921 23.536 97.7441 23.536C101.344 23.536 103.888 20.896 103.888 17.824V17.776C103.888 14.704 101.344 12.112 97.7921 12.112ZM99.5201 17.824C99.5201 18.88 98.8001 19.696 97.7921 19.696C96.7841 19.696 96.0161 18.832 96.0161 17.776V17.728C96.0161 16.672 96.7361 15.856 97.7441 15.856C98.7521 15.856 99.5201 16.72 99.5201 17.824ZM36.1121 4C29.4881 4 24.1121 9.376 24.1121 16C24.1121 22.624 29.4881 28 36.1121 28C42.7361 28 48.1121 22.624 48.1121 16C48.1121 9.376 42.7361 4 36.1121 4ZM36.1121 24.832C31.2161 24.832 27.2801 20.896 27.2801 16C27.2801 11.104 31.2161 7.168 36.1121 7.168C41.0081 7.168 44.9441 11.104 44.9441 16C44.9441 20.896 41.0081 24.832 36.1121 24.832Z" fill="white"/>
<path d="M39.0881 15.52C40.4666 15.52 41.5841 14.4025 41.5841 13.024C41.5841 11.6455 40.4666 10.528 39.0881 10.528C37.7096 10.528 36.5921 11.6455 36.5921 13.024C36.5921 14.4025 37.7096 15.52 39.0881 15.52Z" fill="white"/>
<path d="M39.0881 21.472C40.4666 21.472 41.5841 20.3545 41.5841 18.976C41.5841 17.5975 40.4666 16.48 39.0881 16.48C37.7096 16.48 36.5921 17.5975 36.5921 18.976C36.5921 20.3545 37.7096 21.472 39.0881 21.472Z" fill="white"/>
<path d="M33.1361 21.472C34.5146 21.472 35.6321 20.3545 35.6321 18.976C35.6321 17.5975 34.5146 16.48 33.1361 16.48C31.7576 16.48 30.6401 17.5975 30.6401 18.976C30.6401 20.3545 31.7576 21.472 33.1361 21.472Z" fill="white"/>
<path d="M33.1361 15.52C34.5146 15.52 35.6321 14.4025 35.6321 13.024C35.6321 11.6455 34.5146 10.528 33.1361 10.528C31.7576 10.528 30.6401 11.6455 30.6401 13.024C30.6401 14.4025 31.7576 15.52 33.1361 15.52Z" fill="white"/>
</svg>
