<svg width="24" height="24" viewBox="0 0 24 24" fill="none" xmlns="http://www.w3.org/2000/svg">
<g clip-path="url(#clip0_1_15305)">
<path d="M23.7628 12.2759C23.7628 11.4602 23.6967 10.64 23.5556 9.83752H12.2368V14.4585H18.7185C18.4496 15.9489 17.5853 17.2673 16.3199 18.105V21.1034H20.1869C22.4577 19.0133 23.7628 15.9268 23.7628 12.2759Z" fill="#272D37"/>
<path d="M12.2374 24.0002C15.4739 24.0002 18.2032 22.9375 20.1919 21.1032L16.3249 18.1049C15.249 18.8368 13.8601 19.2513 12.2418 19.2513C9.1112 19.2513 6.45678 17.1392 5.50436 14.2996H1.51392V17.3906C3.55103 21.4427 7.70021 24.0002 12.2374 24.0002V24.0002Z" fill="#272D37"/>
<path d="M5.49984 14.3001C4.99718 12.8097 4.99718 11.1959 5.49984 9.70557V6.61462H1.51381C-0.188196 10.0054 -0.188196 14.0003 1.51381 17.391L5.49984 14.3001V14.3001Z" fill="#272D37"/>
<path d="M12.2374 4.74948C13.9482 4.72302 15.6017 5.36678 16.8408 6.54848L20.2668 3.12243C18.0974 1.08532 15.2181 -0.0346491 12.2374 0.000625561C7.70021 0.000625561 3.55103 2.55804 1.51392 6.61462L5.49995 9.70557C6.44796 6.86155 9.10679 4.74948 12.2374 4.74948V4.74948Z" fill="#272D37"/>
</g>
<defs>
<clipPath id="clip0_1_15305">
<rect width="24" height="24" fill="white"/>
</clipPath>
</defs>
</svg>
