<svg width="20" height="20" viewBox="0 0 20 20" fill="none" xmlns="http://www.w3.org/2000/svg">
<path d="M0 1.43266C0 0.641875 0.662031 0 1.47813 0H18.5219C19.3383 0 20 0.641875 20 1.43266V18.5676C20 19.3586 19.3383 20 18.5219 20H1.47813C0.662109 20 0 19.3587 0 18.5678V1.43242V1.43266Z" fill="#272D37"/>
<path d="M6.07767 16.7375V7.73341H3.08485V16.7375H6.07798H6.07767ZM4.58188 6.50427C5.62532 6.50427 6.27493 5.81287 6.27493 4.9488C6.2554 4.06505 5.62532 3.39294 4.60173 3.39294C3.57743 3.39294 2.90845 4.06505 2.90845 4.94873C2.90845 5.81279 3.55782 6.50419 4.56228 6.50419H4.58165L4.58188 6.50427ZM7.73423 16.7375H10.7268V11.7097C10.7268 11.441 10.7463 11.1715 10.8254 10.9796C11.0417 10.4417 11.5341 9.8849 12.361 9.8849C13.4437 9.8849 13.877 10.7105 13.877 11.9211V16.7375H16.8695V11.5748C16.8695 8.80927 15.3933 7.52232 13.4243 7.52232C11.81 7.52232 11.101 8.42458 10.7071 9.03912H10.727V7.73373H7.73438C7.77345 8.57841 7.73415 16.7378 7.73415 16.7378L7.73423 16.7375Z" fill="white"/>
</svg>
